<?xml version="1.0" standalone="no"?>
<!DOCTYPE svg PUBLIC "-//W3C//DTD SVG 20010904//EN"
 "http://www.w3.org/TR/2001/REC-SVG-20010904/DTD/svg10.dtd">
<svg version="1.0" xmlns="http://www.w3.org/2000/svg"
 width="256.000000pt" height="256.000000pt" viewBox="0 0 256.000000 256.000000"
 preserveAspectRatio="xMidYMid meet">
<metadata>
Created by potrace 1.14, written by Peter Selinger 2001-2017
</metadata>
<g transform="translate(0.000000,256.000000) scale(0.100000,-0.100000)"
fill="#000000" stroke="none">
<path d="M382 2548 c-7 -7 -12 -20 -12 -31 0 -10 -7 -25 -15 -33 -8 -9 -15
-26 -15 -40 0 -15 -6 -24 -15 -24 -8 0 -15 5 -15 10 0 20 -27 10 -38 -14 -9
-20 -7 -27 9 -42 24 -21 18 -30 -10 -14 -17 9 -25 8 -38 -6 -16 -15 -16 -17 0
-29 20 -15 21 -22 4 -40 -11 -11 -16 -10 -26 6 -6 11 -16 17 -20 14 -12 -7 -6
-41 7 -38 15 3 -3 -55 -24 -79 -14 -14 -15 -21 -6 -30 7 -7 12 -29 12 -50 0
-41 14 -51 23 -17 6 23 27 17 27 -7 0 -8 5 -14 10 -14 6 0 10 -9 10 -21 0 -18
-4 -20 -32 -14 -25 5 -29 4 -18 -4 13 -9 13 -11 -1 -11 -10 0 -19 -11 -21 -25
-4 -17 -1 -25 8 -25 8 0 14 5 14 10 0 7 6 7 19 1 20 -11 34 -78 20 -96 -4 -6
-4 -17 1 -24 12 -21 -15 -77 -35 -73 -11 2 -15 -2 -13 -10 3 -7 15 -13 29 -13
22 0 24 -4 26 -60 l2 -60 -29 33 c-19 22 -31 29 -36 21 -4 -7 0 -18 10 -25 16
-11 16 -14 2 -36 -9 -14 -13 -28 -9 -31 3 -4 0 -7 -7 -7 -11 0 -11 -3 -2 -12
7 -7 12 -20 12 -30 0 -21 15 -24 23 -5 2 6 3 26 2 44 -1 23 3 33 16 36 17 5
26 -23 31 -95 2 -30 3 -31 33 -19 16 6 22 3 32 -18 l11 -26 1 35 c1 26 4 31
13 22 7 -7 16 -12 20 -12 13 0 9 28 -4 33 -10 3 -9 12 4 35 12 22 13 32 5 36
-9 3 -8 5 1 5 6 1 12 6 12 12 0 5 -5 7 -11 3 -7 -4 -2 7 11 24 22 30 20 59 -3
46 -7 -4 -3 2 8 13 33 34 55 63 55 73 0 6 5 10 10 10 16 0 11 -37 -7 -56 -16
-16 -16 -16 6 -9 21 6 22 4 20 -27 -3 -37 23 -84 41 -73 6 4 8 15 5 26 -5 13
-2 19 10 19 9 0 14 4 10 10 -3 5 3 18 15 30 11 11 20 16 20 10 0 -5 12 -10 28
-9 15 0 21 3 15 6 -22 8 -14 20 15 26 15 2 49 11 75 20 37 12 45 12 37 2 -8
-10 -4 -12 19 -11 16 1 33 5 37 9 11 11 21 9 40 -10 13 -13 19 -14 22 -5 2 7
8 10 13 6 15 -9 10 -24 -8 -24 -15 0 -16 -2 -3 -10 10 -6 11 -10 3 -10 -7 0
-12 -3 -12 -7 4 -24 -4 -33 -25 -33 -14 0 -28 -4 -31 -10 -10 -16 -42 -11 -50
8 -5 14 -4 15 6 5 7 -7 20 -13 28 -13 8 0 11 3 8 6 -4 4 3 16 16 27 20 18 20
19 2 13 -11 -4 -40 -10 -65 -13 -25 -3 -48 -10 -52 -16 -6 -9 -10 -9 -15 -1
-16 21 -41 23 -59 3 -15 -17 -16 -22 -4 -29 8 -5 11 -12 7 -16 -3 -4 -13 -2
-20 4 -8 7 -24 8 -43 3 -22 -6 -28 -13 -27 -30 2 -13 -1 -20 -7 -16 -6 3 -10
1 -10 -4 0 -6 -5 -11 -11 -11 -6 0 -9 7 -5 15 3 8 1 15 -4 15 -16 0 -11 -26 7
-41 9 -8 24 -13 33 -11 13 2 16 -5 13 -38 -2 -23 -8 -50 -13 -61 -8 -15 -7
-19 4 -19 8 0 17 6 20 13 3 8 9 6 21 -8 13 -17 18 -18 36 -7 11 7 24 10 30 6
5 -3 16 0 24 6 12 10 15 9 15 -4 0 -9 4 -16 9 -16 4 0 8 12 7 28 -1 22 4 28
27 30 21 3 27 9 27 28 0 18 5 24 23 24 18 0 19 -2 7 -10 -13 -8 -13 -10 -1
-10 12 0 12 -3 3 -12 -7 -7 -12 -28 -12 -48 -1 -31 -2 -33 -14 -17 -15 19 -41
23 -51 7 -3 -5 -1 -10 5 -10 6 0 9 -4 6 -8 -2 -4 -2 -13 2 -18 9 -14 72 -26
72 -15 0 5 9 11 20 14 11 3 20 0 20 -5 0 -7 5 -6 14 1 7 6 20 9 28 6 8 -3 25
4 38 15 13 11 29 19 34 17 6 -2 47 1 91 7 69 10 80 14 83 33 3 18 6 19 27 9
14 -6 25 -14 25 -18 0 -5 7 -8 15 -8 19 0 19 14 0 34 -14 14 -14 17 3 34 17
17 17 21 3 53 -19 44 -21 59 -10 59 13 0 -2 32 -28 60 -13 14 -23 30 -23 36 0
7 -12 15 -27 19 -26 6 -51 32 -64 64 -3 9 -23 16 -49 18 -24 2 -47 8 -51 14
-3 6 -15 9 -25 7 -11 -3 -31 2 -46 9 -16 7 -63 15 -105 18 -43 2 -93 7 -110
11 -22 4 -33 3 -33 -5 0 -6 -8 -11 -17 -12 -34 -1 -78 -35 -78 -59 0 -14 -8
-26 -20 -30 -30 -11 -37 -2 -19 26 12 17 13 24 4 24 -10 0 -10 3 0 15 6 8 9
19 5 26 -5 8 -1 9 15 4 14 -4 20 -3 16 3 -3 5 1 15 10 22 8 7 12 19 10 27 -6
14 38 63 57 63 5 0 6 7 3 16 -17 44 -18 64 -3 64 16 0 30 -27 21 -41 -3 -5 0
-9 5 -9 6 0 11 -7 11 -15 0 -8 4 -15 9 -15 14 0 20 27 8 39 -16 16 -2 24 22
11 23 -12 26 -8 11 21 -7 13 -7 19 0 19 5 0 10 9 10 20 0 20 1 20 24 3 16 -12
20 -20 12 -25 -6 -4 1 -8 17 -8 15 0 27 -4 27 -10 0 -5 9 -1 20 10 11 11 28
20 38 20 9 0 28 9 42 20 14 11 36 20 49 20 20 0 23 4 19 30 -4 25 -1 30 15 30
13 0 17 5 13 15 -3 8 -1 15 3 15 5 0 12 -6 14 -12 4 -10 6 -10 6 0 1 14 41 17
41 2 0 -5 -6 -10 -14 -10 -13 0 -31 -29 -22 -37 5 -6 56 49 56 60 0 5 6 7 14
4 19 -7 51 17 42 31 -11 18 -34 14 -39 -5 -4 -17 -5 -17 -6 0 -1 16 -3 17 -16
3 -13 -13 -19 -13 -43 0 -15 7 -39 14 -53 14 -18 0 -33 9 -44 26 l-17 27 26
-7 c19 -5 26 -3 26 9 0 10 -10 15 -34 15 -22 0 -36 6 -40 16 -5 14 -4 15 8 5
8 -7 20 -10 27 -6 7 5 8 10 1 14 -6 4 -4 11 4 19 12 11 14 9 14 -8 0 -13 7
-20 19 -20 11 0 23 -5 26 -10 4 -6 10 -8 15 -5 4 2 19 -4 33 -15 33 -26 83
-26 99 0 7 11 20 20 28 20 13 0 13 -2 0 -11 -13 -9 -12 -10 3 -5 10 3 38 -3
63 -14 26 -12 53 -18 68 -14 15 3 27 1 33 -8 4 -7 17 -13 28 -14 11 0 33 -4
49 -8 26 -6 27 -5 13 9 -9 8 -25 15 -36 15 -12 0 -21 4 -21 9 0 5 -22 12 -49
16 -37 5 -48 10 -44 21 4 10 -3 14 -23 15 -16 0 -38 4 -49 8 -19 7 -19 8 3 27
27 23 28 37 2 29 -11 -3 -20 -2 -20 4 0 21 13 41 26 41 8 0 14 10 14 25 0 19
-5 25 -22 24 -21 0 -21 -1 -4 -8 12 -5 15 -10 9 -14 -6 -4 -16 0 -23 8 -17 20
-330 20 -330 -1 0 -14 -15 -18 -63 -15 -16 1 -38 -5 -49 -13 -20 -15 -34 -13
-75 7 -27 12 -41 3 -25 -16 29 -35 -46 -54 -93 -23 -29 19 -25 36 8 37 12 0
16 3 10 6 -7 2 -13 11 -13 19 0 18 -150 20 -168 2z m538 -8 c0 -5 -5 -10 -11
-10 -5 0 -7 5 -4 10 3 6 8 10 11 10 2 0 4 -4 4 -10z m112 -68 c-6 -16 -44 -12
-49 5 -3 8 6 12 25 10 20 -1 28 -6 24 -15z m-549 -41 c3 -12 -1 -22 -10 -25
-10 -4 -13 -12 -7 -24 10 -23 12 -112 2 -112 -4 0 -8 8 -8 18 0 14 -4 12 -20
-8 -17 -22 -20 -23 -25 -7 -4 9 -11 14 -16 11 -13 -7 -11 57 2 95 6 17 15 31
21 31 6 0 8 6 5 14 -3 8 -1 17 6 20 26 10 45 5 50 -13z m178 1 c-7 -2 -18 1
-23 6 -8 8 -4 9 13 5 13 -4 18 -8 10 -11z m-111 -42 c0 -14 -6 -20 -22 -19
-13 0 -17 3 -10 6 6 2 12 11 12 19 0 8 5 14 10 14 6 0 10 -9 10 -20z m60 -25
c-17 -18 -18 -24 -7 -33 16 -14 27 -6 27 19 0 12 5 16 15 13 8 -4 12 -10 9
-15 -3 -5 5 -9 18 -10 15 0 18 -3 8 -6 -36 -15 -54 -53 -24 -53 14 0 14 -3 4
-15 -15 -18 -35 -20 -24 -3 4 6 3 8 -4 5 -16 -11 -42 3 -42 22 0 10 -9 27 -20
39 -12 12 -16 22 -11 22 5 0 13 9 16 20 4 11 11 18 16 15 5 -4 9 -2 9 4 0 6 7
8 16 4 13 -5 12 -9 -6 -28z m110 -45 c0 -5 -5 -10 -11 -10 -5 0 -7 5 -4 10 3
6 8 10 11 10 2 0 4 -4 4 -10z m15 -30 c3 -5 1 -10 -4 -10 -6 0 -11 5 -11 10 0
6 2 10 4 10 3 0 8 -4 11 -10z m-179 -32 c15 -19 16 -20 2 -9 -21 15 -24 2 -5
-19 6 -8 1 -6 -13 5 -14 11 -27 21 -29 22 -5 3 10 23 18 23 4 0 16 -10 27 -22z
m-151 -25 c2 -10 4 -22 4 -27 1 -4 8 -6 16 -2 17 6 19 -2 5 -24 -6 -9 -10 -11
-10 -3 0 7 -7 10 -15 7 -12 -5 -15 3 -15 37 0 42 8 49 15 12z m518 5 c7 -24 1
-38 -14 -38 -6 0 -7 5 -4 10 4 6 -6 10 -23 10 -16 0 -34 6 -41 13 -8 11 -5 13
19 9 18 -3 30 0 30 7 0 20 28 11 33 -11z m-176 -14 c-3 -3 -12 -4 -19 -1 -8 3
-5 6 6 6 11 1 17 -2 13 -5z m-507 -49 c-8 -9 -7 -14 1 -17 13 -4 4 -28 -11
-28 -12 0 -21 30 -15 51 4 11 12 16 21 12 11 -4 12 -9 4 -18z m319 -29 c10
-12 8 -13 -8 -9 -12 3 -18 9 -15 14 7 12 10 11 23 -5z m51 -18 c0 -5 -4 -8
-10 -8 -5 0 -10 10 -10 23 0 18 2 19 10 7 5 -8 10 -18 10 -22z m40 16 c0 -8
-5 -12 -10 -9 -6 4 -8 11 -5 16 9 14 15 11 15 -7z m-347 -139 c7 -16 -17 -143
-28 -153 -4 -4 -5 26 -3 66 3 65 -3 93 -14 60 -3 -7 -7 -2 -10 10 -5 19 -3 22
13 17 11 -4 19 -2 19 4 0 16 17 13 23 -4z m607 -300 c0 -8 -7 -15 -15 -15 -9
0 -12 6 -9 15 4 8 10 15 15 15 5 0 9 -7 9 -15z m133 -28 c12 11 67 -19 67 -37
0 -10 6 -20 13 -23 16 -6 -32 -46 -56 -47 -17 0 -17 1 -3 16 27 26 19 53 -19
71 -19 9 -35 24 -35 32 1 14 3 13 14 -1 7 -10 16 -15 19 -11z m-33 -59 c0 -10
-6 -18 -14 -18 -8 0 -16 -7 -20 -15 -5 -14 15 -21 52 -16 11 2 11 -2 1 -21 -7
-13 -14 -18 -16 -11 -3 9 -10 9 -29 1 -13 -6 -24 -15 -24 -20 0 -12 -28 -10
-32 4 -2 6 -21 11 -41 10 -21 -1 -37 3 -37 9 0 6 8 9 18 7 10 -3 25 0 34 6 16
12 52 76 43 76 -3 0 0 6 7 14 17 18 58 0 58 -26z m-235 -38 c3 -5 -1 -10 -10
-10 -9 0 -13 5 -10 10 3 6 8 10 10 10 2 0 7 -4 10 -10z m39 -85 c3 -8 1 -15
-4 -15 -6 0 -10 7 -10 15 0 8 2 15 4 15 2 0 6 -7 10 -15z"/>
<path d="M752 2554 c11 -10 67 -13 73 -3 4 5 -12 9 -36 9 -23 0 -40 -3 -37 -6z"/>
<path d="M1265 2545 c75 -23 115 -27 109 -12 -5 14 -71 28 -123 26 -22 -1 -19
-3 14 -14z"/>
<path d="M1520 2548 c0 -5 4 -7 9 -3 5 3 12 1 16 -5 9 -15 25 -12 25 4 0 8
-10 14 -25 14 -14 0 -25 -5 -25 -10z"/>
<path d="M1590 2536 c0 -15 18 -31 26 -23 7 7 -7 37 -17 37 -5 0 -9 -6 -9 -14z"/>
<path d="M1236 2523 c-14 -14 -4 -23 24 -23 17 0 30 5 30 12 0 6 -3 8 -6 5 -4
-3 -14 -2 -24 3 -10 5 -20 6 -24 3z"/>
<path d="M1407 2523 c-24 -6 -16 -26 14 -34 13 -4 18 -7 12 -8 -20 -2 18 -41
39 -41 10 0 18 8 19 18 0 10 3 12 6 5 7 -18 43 -16 43 1 0 17 -27 28 -51 21
-15 -5 -17 -3 -12 11 5 14 3 16 -11 11 -10 -4 -19 -1 -22 8 -6 16 -7 16 -37 8z"/>
<path d="M1490 2520 c0 -5 9 -10 21 -10 11 0 17 5 14 10 -3 6 -13 10 -21 10
-8 0 -14 -4 -14 -10z"/>
<path d="M1290 2455 c31 -18 70 -19 70 -2 0 7 -17 13 -48 14 -45 1 -46 1 -22
-12z"/>
<path d="M1251 2443 c-1 -12 4 -25 9 -28 12 -7 12 2 0 30 -8 19 -9 19 -9 -2z"/>
<path d="M1360 2431 c-7 -15 -7 -21 0 -21 12 0 25 28 17 36 -3 3 -10 -4 -17
-15z"/>
<path d="M1390 2385 c0 -8 5 -15 10 -15 6 0 10 7 10 15 0 8 -4 15 -10 15 -5 0
-10 -7 -10 -15z"/>
<path d="M1426 2393 c-12 -12 -6 -25 9 -19 8 3 15 1 15 -3 0 -5 7 -11 15 -15
8 -3 15 -2 15 3 0 12 -46 41 -54 34z"/>
<path d="M980 2360 c0 -5 7 -10 15 -10 8 0 15 5 15 10 0 6 -7 10 -15 10 -8 0
-15 -4 -15 -10z"/>
<path d="M1750 2327 c-27 -11 -38 -13 -87 -15 -21 -1 -33 -7 -33 -16 0 -16
-27 -29 -34 -17 -3 5 -29 11 -58 15 -29 4 -58 12 -65 18 -13 10 -33 3 -33 -12
0 -5 13 -16 30 -25 35 -18 165 -21 176 -3 5 7 10 4 15 -11 7 -19 12 -20 29
-11 16 9 25 8 36 -1 8 -7 39 -13 69 -13 29 -1 57 -4 61 -8 13 -14 21 -8 19 15
-1 12 -7 23 -13 23 -7 1 -17 2 -23 3 -6 0 -8 9 -5 19 9 26 -49 53 -84 39z"/>
<path d="M1850 2300 c0 -5 5 -10 10 -10 6 0 10 5 10 10 0 6 -4 10 -10 10 -5 0
-10 -4 -10 -10z"/>
<path d="M1147 2293 c-4 -3 -7 -11 -7 -17 0 -6 5 -5 12 2 6 6 9 14 7 17 -3 3
-9 2 -12 -2z"/>
<path d="M1920 2220 c0 -5 5 -10 10 -10 6 0 10 5 10 10 0 6 -4 10 -10 10 -5 0
-10 -4 -10 -10z"/>
<path d="M1960 2179 c0 -5 5 -7 10 -4 6 3 10 8 10 11 0 2 -4 4 -10 4 -5 0 -10
-5 -10 -11z"/>
<path d="M2005 2170 c3 -5 8 -10 11 -10 2 0 4 5 4 10 0 6 -5 10 -11 10 -5 0
-7 -4 -4 -10z"/>
<path d="M580 1995 c-20 -24 -6 -28 15 -5 10 11 13 20 8 20 -6 0 -16 -7 -23
-15z"/>
<path d="M150 1946 c0 -8 5 -18 10 -21 6 -4 7 -12 4 -18 -4 -7 2 -3 13 8 11
11 18 24 15 29 -2 4 -8 2 -13 -5 -7 -11 -9 -10 -9 4 0 9 -4 17 -10 17 -5 0
-10 -6 -10 -14z"/>
<path d="M1838 1915 c-5 -5 -30 -8 -167 -20 -35 -3 -57 -26 -47 -51 3 -9 -1
-14 -12 -14 -14 0 -15 -2 -2 -9 8 -6 19 -7 25 -5 5 3 0 -3 -13 -14 -16 -14
-18 -22 -10 -26 7 -3 4 -4 -7 -1 -24 5 -71 -17 -68 -32 1 -6 -13 -21 -32 -34
-34 -24 -48 -46 -22 -36 8 3 14 -1 14 -9 0 -8 -5 -14 -10 -14 -15 0 2 -54 23
-72 11 -9 20 -20 20 -26 0 -12 34 -42 48 -42 7 0 21 -9 33 -21 18 -18 28 -20
78 -14 66 8 71 11 71 34 0 17 -54 41 -92 41 -8 0 -23 7 -34 15 -18 15 -17 15
15 13 22 -2 36 2 39 11 3 8 0 11 -7 7 -8 -5 -8 0 -1 19 6 15 8 31 4 36 -3 5 1
9 9 9 17 0 30 -40 21 -63 -4 -11 7 -17 43 -23 26 -4 55 -9 63 -9 21 -2 70 34
70 51 0 18 20 18 44 -1 25 -19 36 -19 36 0 0 18 -51 70 -66 67 -7 -1 -14 4
-18 13 -3 8 -16 15 -30 15 -14 0 -28 5 -31 10 -3 6 -1 10 4 10 6 0 11 5 11 11
0 7 -10 9 -25 7 -14 -3 -28 -1 -31 3 -3 5 -16 9 -30 9 -30 0 -31 13 -2 40 16
14 36 20 72 21 97 1 142 12 168 40 11 11 14 20 8 24 -6 3 -10 1 -10 -6 0 -9
-3 -9 -14 1 -8 6 -39 18 -68 26 -60 16 -63 16 -70 9z m-33 -194 c-3 -6 -14
-11 -23 -11 -13 0 -13 2 4 14 21 15 30 14 19 -3z m-180 -41 c3 -5 -6 -19 -20
-32 -14 -12 -25 -32 -25 -45 0 -13 -6 -23 -14 -23 -8 0 -16 -6 -19 -12 -3 -8
-9 -3 -15 12 -9 21 -7 28 11 44 16 14 18 20 9 24 -10 3 -5 11 15 23 31 21 49
24 58 9z m185 -20 c0 -5 -7 -10 -16 -10 -8 0 -12 5 -9 10 3 6 10 10 16 10 5 0
9 -4 9 -10z"/>
<path d="M195 1870 c-4 -6 -3 -16 3 -22 6 -6 12 -6 17 2 4 6 3 16 -3 22 -6 6
-12 6 -17 -2z"/>
<path d="M178 1813 c6 -2 18 -2 25 0 6 3 1 5 -13 5 -14 0 -19 -2 -12 -5z"/>
<path d="M446 1663 c-3 -3 -3 -10 0 -14 7 -12 34 -11 34 0 0 11 -26 22 -34 14z"/>
<path d="M432 1595 c14 -31 42 -29 46 3 4 23 -12 30 -22 10 -5 -10 -7 -10 -12
0 -3 6 -10 12 -15 12 -5 0 -3 -11 3 -25z"/>
<path d="M1770 1531 c0 -10 36 -21 44 -14 3 3 3 10 0 14 -7 12 -44 12 -44 0z"/>
<path d="M183 1515 c4 -8 1 -17 -5 -21 -7 -4 -6 -9 3 -15 23 -15 29 -10 29 21
0 21 -5 30 -16 30 -10 0 -14 -6 -11 -15z"/>
<path d="M521 1494 c0 -11 3 -14 6 -6 3 7 2 16 -1 19 -3 4 -6 -2 -5 -13z"/>
<path d="M1190 1470 c-13 -8 -13 -10 2 -10 9 0 20 5 23 10 8 13 -5 13 -25 0z"/>
<path d="M292 1455 c-7 -8 -12 -18 -11 -21 0 -4 -5 -11 -13 -16 -9 -7 -10 -11
-2 -14 7 -3 10 -14 7 -24 -3 -11 -9 -18 -13 -15 -4 2 -7 -11 -8 -30 -1 -19 -9
-47 -19 -62 -13 -19 -14 -28 -5 -31 14 -4 17 -52 2 -52 -9 0 -5 -64 6 -81 3
-5 -2 -9 -10 -9 -19 0 -22 -40 -4 -58 17 -17 33 -15 18 3 -10 12 -9 15 4 15
26 0 57 -20 51 -31 -4 -5 -1 -8 7 -7 8 2 12 -5 10 -19 -2 -13 2 -23 9 -23 8 0
8 -4 -1 -15 -11 -13 -8 -15 14 -15 18 0 26 5 26 18 0 13 2 14 9 3 11 -17 32
-5 24 14 -6 18 13 20 21 3 3 -7 3 12 0 42 -3 30 -9 59 -14 65 -13 16 -24 99
-12 91 6 -4 10 2 9 15 -1 11 -10 25 -21 31 -13 7 -15 12 -7 17 8 6 9 15 2 33
-7 18 -6 29 2 37 8 8 6 11 -8 12 -19 0 -19 1 0 9 11 5 14 9 8 9 -8 1 -13 15
-13 34 0 21 -7 38 -19 46 -11 8 -17 20 -14 28 7 17 -19 16 -35 -2z"/>
<path d="M650 1446 c0 -2 7 -7 16 -10 8 -3 12 -2 9 4 -6 10 -25 14 -25 6z"/>
<path d="M175 1430 c3 -5 11 -10 16 -10 6 0 7 5 4 10 -3 6 -11 10 -16 10 -6 0
-7 -4 -4 -10z"/>
<path d="M175 1400 c-7 -12 2 -30 15 -30 5 0 8 9 7 20 -1 21 -12 26 -22 10z"/>
<path d="M1123 1305 c0 -8 4 -15 8 -15 4 0 9 7 13 15 3 9 0 15 -8 15 -7 0 -13
-7 -13 -15z"/>
<path d="M430 1206 c0 -9 5 -16 10 -16 6 0 10 4 10 9 0 6 -4 13 -10 16 -5 3
-10 -1 -10 -9z"/>
<path d="M180 1170 c0 -5 5 -10 10 -10 6 0 10 5 10 10 0 6 -4 10 -10 10 -5 0
-10 -4 -10 -10z"/>
<path d="M410 1170 c0 -5 5 -10 10 -10 6 0 10 5 10 10 0 6 -4 10 -10 10 -5 0
-10 -4 -10 -10z"/>
<path d="M186 1135 c-3 -9 0 -15 9 -15 8 0 15 7 15 15 0 8 -4 15 -9 15 -5 0
-11 -7 -15 -15z"/>
<path d="M1160 1104 c0 -8 -5 -12 -11 -9 -6 4 -13 -2 -16 -14 -7 -25 -29 -27
-57 -4 -12 10 -15 11 -8 3 6 -8 12 -22 12 -31 0 -9 7 -22 15 -29 27 -22 43
-65 31 -82 -6 -8 -17 -13 -23 -11 -8 3 -13 -4 -13 -16 0 -12 6 -21 14 -21 17
0 27 -33 15 -51 -7 -11 -12 -12 -29 -1 -26 16 -47 15 -54 -3 -3 -9 -12 -12
-22 -8 -12 4 -15 3 -10 -5 4 -7 1 -12 -8 -12 -9 0 -16 -5 -16 -11 0 -7 -10 -9
-25 -5 -20 5 -25 3 -25 -11 0 -10 -9 -24 -21 -31 -11 -7 -18 -19 -15 -27 3 -9
-3 -15 -16 -17 -12 -2 -24 -9 -26 -17 -3 -10 0 -12 13 -7 13 5 16 2 11 -10 -3
-8 -6 -22 -6 -29 0 -8 -7 -21 -16 -29 -18 -19 -10 -56 13 -56 11 0 14 7 9 28
-5 20 -4 23 4 12 5 -8 10 -10 10 -5 0 6 5 3 11 -5 10 -13 10 -13 6 0 -8 26 11
60 33 60 11 0 20 7 20 15 0 9 6 12 18 8 13 -4 14 -3 6 6 -8 9 -18 9 -39 1 -36
-14 -51 0 -34 31 7 15 14 19 17 11 2 -6 10 -12 18 -12 16 0 19 21 5 35 -6 6 0
17 15 28 25 19 25 19 31 -2 3 -12 10 -21 15 -21 5 0 6 5 3 10 -3 6 -2 10 3 10
14 0 23 -28 12 -35 -6 -4 -10 -15 -10 -26 0 -10 -4 -19 -10 -19 -5 0 -10 -4
-10 -10 0 -5 7 -7 15 -4 11 5 13 2 9 -10 -3 -9 -1 -16 5 -16 10 0 15 13 12 32
0 4 6 5 14 2 9 -4 15 0 15 10 0 9 -4 16 -10 16 -5 0 -10 7 -10 17 0 15 1 15
18 0 37 -33 92 -11 92 37 0 18 4 26 13 23 6 -2 11 -15 9 -28 -2 -19 0 -21 8
-9 6 10 10 11 10 3 0 -7 9 -13 20 -13 21 0 27 15 10 25 -5 3 -10 11 -10 16 0
6 5 7 10 4 6 -4 10 7 10 25 0 25 3 31 16 26 9 -3 18 -6 20 -6 2 0 4 -7 4 -15
0 -8 8 -15 18 -15 10 0 27 -7 39 -15 36 -26 52 -10 47 46 -4 36 -1 54 11 65 8
8 15 28 15 44 0 22 6 30 29 38 16 6 32 7 36 4 4 -4 4 3 1 16 -6 16 -3 22 8 22
9 0 16 4 16 10 0 5 7 7 15 4 21 -9 19 19 -3 39 -23 21 -66 22 -83 1 -9 -11
-22 -14 -42 -10 -16 3 -38 1 -50 -6 -21 -11 -21 -11 -2 -19 13 -5 15 -8 5 -8
-29 -2 -115 36 -112 49 2 8 -3 10 -13 7 -9 -4 -20 1 -27 13 -15 24 -28 26 -28
4z m254 -60 c15 -6 15 -8 -1 -21 -13 -10 -15 -16 -5 -19 21 -9 13 -22 -10 -16
-43 10 -51 42 -10 42 21 0 24 2 12 10 -17 11 -9 13 14 4z m-26 -82 c18 -24 14
-37 -6 -19 -10 10 -26 17 -36 17 -10 0 -25 7 -34 17 -15 15 -14 16 23 9 22 -4
46 -15 53 -24z m-115 3 c-3 -9 -8 -14 -10 -11 -3 3 -2 9 2 15 9 16 15 13 8 -4z
m42 -43 c-3 -3 -11 0 -18 7 -9 10 -8 11 6 5 10 -3 15 -9 12 -12z m-45 -44 c0
-11 -12 -10 -30 2 -12 7 -10 9 8 7 12 0 22 -5 22 -9z m90 -18 c0 -5 -4 -10
-10 -10 -5 0 -10 5 -10 10 0 6 5 10 10 10 6 0 10 -4 10 -10z m-210 -114 c0
-11 -19 -15 -25 -6 -3 5 1 10 9 10 9 0 16 -2 16 -4z"/>
<path d="M124 1066 c10 -50 0 -78 -27 -75 -12 1 -39 -1 -60 -6 -34 -7 -38 -10
-35 -34 3 -25 6 -26 53 -24 28 2 64 4 80 7 17 2 37 4 46 5 15 1 15 7 4 63 -7
33 -11 67 -8 75 3 7 -1 13 -10 13 -9 0 -23 3 -33 7 -15 5 -16 2 -10 -31z"/>
<path d="M440 991 c0 -11 4 -21 9 -21 18 0 21 18 6 30 -13 10 -15 9 -15 -9z"/>
<path d="M425 949 c-4 -6 -14 -8 -22 -5 -12 5 -14 -1 -11 -29 2 -19 1 -35 -2
-35 -4 0 -11 -10 -17 -23 -8 -17 -7 -28 3 -42 13 -17 14 -16 14 17 0 32 3 35
21 31 14 -4 17 -8 9 -13 -7 -4 -9 -13 -6 -19 4 -6 2 -11 -3 -11 -6 0 -11 -4
-11 -10 0 -5 14 -10 30 -10 17 0 30 -4 30 -10 0 -5 -9 -10 -20 -10 -15 0 -20
-7 -20 -25 0 -18 4 -23 15 -19 8 4 15 11 15 18 0 6 5 4 10 -4 7 -12 3 -17 -18
-23 -21 -5 -31 -2 -44 14 -10 12 -18 16 -18 10 0 -6 9 -19 20 -28 24 -21 26
-33 5 -33 -8 0 -15 -4 -15 -9 0 -5 8 -8 17 -7 12 0 19 -7 21 -21 4 -24 -13
-32 -21 -10 -3 7 -6 5 -6 -5 -1 -12 6 -18 19 -18 11 0 20 -4 20 -10 0 -5 -5
-10 -11 -10 -7 0 -8 -19 -5 -55 5 -46 3 -56 -12 -64 -11 -6 -32 -8 -47 -5 -25
4 -27 3 -21 -19 9 -36 -21 -67 -53 -55 -30 11 -55 -9 -45 -37 7 -17 8 -17 20
-1 8 11 14 13 19 7 7 -12 -17 -41 -33 -41 -6 0 -12 6 -14 12 -4 10 -10 10 -32
0 -15 -6 -35 -12 -44 -11 -14 0 -13 2 3 9 12 5 14 9 6 9 -17 1 -5 16 12 16 7
0 13 7 15 15 2 11 -8 16 -38 17 -34 2 -40 0 -40 -17 0 -11 7 -20 15 -20 19 0
19 -11 2 -35 -10 -13 -16 -15 -21 -6 -6 9 -13 8 -29 -6 -12 -9 -17 -11 -10 -4
9 11 8 17 -4 29 -14 14 -17 14 -27 0 -8 -10 -17 -13 -25 -8 -10 5 -10 9 -2 13
7 3 7 5 -1 3 -18 -4 -23 -67 -6 -77 7 -5 8 -9 2 -9 -7 0 -12 -43 -13 -130 l-2
-130 576 0 c445 1 575 4 572 13 -2 7 -12 11 -21 11 -9 -1 -16 4 -16 12 0 8 -4
14 -10 14 -5 0 -10 9 -10 20 0 11 5 20 11 20 8 0 8 4 0 14 -9 10 -7 17 6 27
15 12 16 12 10 -3 -4 -12 -2 -18 8 -18 8 0 15 -6 16 -12 0 -7 4 -4 9 7 7 18 8
19 15 2 4 -9 15 -17 24 -17 15 1 15 2 0 13 -19 15 -20 39 -2 55 10 10 13 9 13
-8 0 -19 4 -20 38 -14 46 8 52 12 52 30 0 8 6 14 13 14 8 0 7 4 -3 11 -12 8
-9 10 14 6 35 -6 66 18 66 50 0 22 3 23 54 21 37 -2 52 0 49 8 -2 6 5 14 16
17 12 3 21 1 21 -4 0 -17 18 -9 23 11 6 23 -21 28 -41 8 -8 -8 -15 -8 -25 1
-8 6 -22 9 -31 5 -12 -5 -15 -2 -10 10 7 18 16 20 29 7 6 -6 15 -4 23 5 11 12
10 14 -3 14 -13 0 -13 3 -3 20 11 17 14 18 28 5 24 -22 28 -19 27 20 -1 41 -1
41 -28 16 -30 -28 -67 -33 -74 -10 -4 11 -11 19 -16 19 -6 0 -7 6 -4 13 4 6 0
4 -8 -6 -15 -18 -17 -16 -39 22 -13 23 -27 41 -31 41 -5 0 -6 -4 -3 -8 3 -5
-3 -18 -14 -30 -14 -14 -16 -22 -7 -26 9 -3 8 -7 -3 -15 -12 -9 -16 -4 -18 24
-3 34 -22 51 -22 20 0 -21 -18 -19 -32 5 -17 27 -32 26 -17 -1 10 -20 9 -21
-14 -15 -15 3 -27 1 -29 -5 -3 -9 -10 -9 -27 0 -27 15 -36 9 -26 -16 8 -19 11
-29 13 -52 2 -11 9 -8 25 9 l22 25 3 -25 c5 -35 18 -46 37 -30 8 7 18 10 21 7
7 -7 -26 -58 -48 -75 -21 -15 -15 -34 9 -30 25 5 26 -19 1 -25 -22 -6 -41 9
-32 25 3 4 -2 8 -11 8 -9 0 -13 5 -10 10 4 6 10 8 14 6 4 -3 8 4 8 15 2 24 -6
24 -23 2 -12 -15 -13 -16 -8 -2 6 20 -15 37 -25 20 -5 -8 -13 -7 -27 4 -18 14
-18 15 -1 29 18 14 18 15 -3 26 -13 7 -35 10 -50 7 -19 -4 -34 0 -49 14 -24
22 -20 39 8 39 10 0 24 7 31 15 15 18 4 19 -39 4 -21 -7 -31 -18 -32 -32 -1
-17 -2 -18 -6 -4 -7 25 -23 21 -23 -7 0 -19 -4 -23 -20 -19 -16 4 -18 8 -9 19
14 17 12 20 -21 28 -14 3 -19 3 -12 0 17 -8 5 -24 -19 -24 -10 0 -19 7 -19 15
0 8 -7 15 -15 15 -8 0 -15 -4 -15 -9 0 -13 -46 -6 -65 9 -23 19 -18 31 10 24
29 -7 32 2 8 29 -17 19 -17 20 4 8 14 -7 24 -8 28 -1 3 6 -2 13 -12 17 -10 4
-21 11 -25 16 -7 11 -38 -15 -38 -32 0 -6 -5 -11 -11 -11 -5 0 -8 4 -5 8 9 15
-12 35 -29 28 -11 -4 -15 -13 -12 -26 7 -26 -5 -25 -28 0 -10 11 -13 20 -7 20
20 0 13 17 -8 23 -20 5 -29 37 -10 37 6 0 10 7 10 15 0 8 5 15 10 15 6 0 10
-7 10 -15 0 -8 -4 -15 -10 -15 -5 0 -10 -4 -10 -10 0 -5 7 -10 15 -10 20 0 24
71 5 78 -4 2 -6 11 -3 21 3 13 -2 20 -17 24 -18 5 -20 9 -11 25 9 17 6 19 -24
20 -19 1 -37 -3 -40 -8 -3 -5 -12 -7 -20 -3 -16 5 -19 -5 -9 -31 3 -9 10 -13
15 -10 5 3 9 -2 9 -11 0 -14 -3 -14 -26 1 -17 12 -23 22 -18 33 10 23 11 121
2 121 -17 0 -7 31 13 38 19 7 19 9 4 22 -14 12 -18 12 -25 0 -7 -11 -14 -12
-34 -2 -29 13 -35 46 -11 56 9 3 15 0 15 -10 0 -12 4 -12 26 2 19 13 22 19 12
25 -18 12 -56 11 -63 -2z m55 -141 c0 -13 -23 -5 -28 10 -2 7 2 10 12 6 9 -3
16 -11 16 -16z m20 -183 c10 -12 10 -15 -4 -15 -9 0 -16 7 -16 15 0 8 2 15 4
15 2 0 9 -7 16 -15z m70 -47 c0 -7 -5 -20 -11 -28 -9 -12 -10 -11 -6 7 3 12 0
24 -7 27 -6 2 -3 5 7 5 9 1 17 -5 17 -11z m-59 -87 c7 11 9 9 9 -8 0 -16 -6
-23 -20 -23 -16 0 -20 7 -20 33 0 45 14 57 18 16 3 -24 6 -29 13 -18z m127
-33 c2 -10 -6 -17 -23 -20 -29 -6 -29 -5 -13 22 14 22 31 21 36 -2z m-98 -18
c0 -5 -2 -10 -4 -10 -3 0 -8 5 -11 10 -3 6 -1 10 4 10 6 0 11 -4 11 -10z m150
0 c0 -5 -2 -10 -4 -10 -3 0 -8 5 -11 10 -3 6 -1 10 4 10 6 0 11 -4 11 -10z
m50 -71 c0 -6 -4 -7 -10 -4 -5 3 -10 11 -10 16 0 6 5 7 10 4 6 -3 10 -11 10
-16z m274 -14 c11 -9 14 -15 7 -15 -7 0 -19 7 -27 15 -20 19 -5 19 20 0z m281
-14 c3 -5 1 -12 -5 -16 -5 -3 -10 1 -10 9 0 18 6 21 15 7z m-605 -56 c0 -5 -5
-3 -10 5 -5 8 -10 20 -10 25 0 6 5 3 10 -5 5 -8 10 -19 10 -25z m-537 -1 c-10
-7 -23 -14 -28 -14 -6 0 -18 -12 -27 -27 -12 -20 -18 -23 -18 -11 0 9 5 20 10
23 6 3 10 16 10 29 0 19 4 21 35 18 32 -4 34 -6 18 -18z m1093 -80 c-4 -9 -9
-15 -11 -12 -3 3 -3 13 1 22 4 9 9 15 11 12 3 -3 3 -13 -1 -22z m-183 -114
c-3 -11 -9 -20 -14 -20 -10 0 -12 24 -2 33 13 13 21 7 16 -13z"/>
<path d="M525 920 c3 -5 8 -10 11 -10 2 0 4 5 4 10 0 6 -5 10 -11 10 -5 0 -7
-4 -4 -10z"/>
<path d="M520 840 c-8 -5 -12 -11 -9 -14 2 -3 11 -1 19 4 8 5 12 11 9 14 -2 3
-11 1 -19 -4z"/>
<path d="M630 840 c0 -5 5 -10 10 -10 6 0 10 5 10 10 0 6 -4 10 -10 10 -5 0
-10 -4 -10 -10z"/>
<path d="M286 815 c4 -8 8 -15 10 -15 2 0 4 7 4 15 0 8 -4 15 -10 15 -5 0 -7
-7 -4 -15z"/>
<path d="M338 813 c-10 -2 -18 -9 -18 -14 0 -15 43 -7 48 9 4 12 0 13 -30 5z"/>
<path d="M537 766 c-4 -9 3 -16 19 -19 28 -5 30 -1 10 19 -18 18 -22 18 -29 0z"/>
<path d="M960 750 c0 -5 7 -10 15 -10 8 0 15 5 15 10 0 6 -7 10 -15 10 -8 0
-15 -4 -15 -10z"/>
<path d="M1355 750 c3 -5 8 -10 11 -10 2 0 4 5 4 10 0 6 -5 10 -11 10 -5 0 -7
-4 -4 -10z"/>
<path d="M650 710 c0 -5 5 -10 10 -10 6 0 10 5 10 10 0 6 -4 10 -10 10 -5 0
-10 -4 -10 -10z"/>
<path d="M1181 703 c4 -23 -3 -35 -16 -29 -9 3 -18 -1 -21 -8 -7 -18 -57 -36
-84 -31 -11 2 -18 0 -15 -5 3 -5 1 -11 -5 -15 -5 -3 -10 -3 -10 2 0 4 -11 13
-25 20 -22 10 -25 9 -25 -9 0 -21 -22 -48 -39 -48 -6 0 -11 -6 -11 -14 0 -30
13 -46 37 -46 19 0 24 -4 19 -16 -5 -12 -2 -15 11 -9 10 4 24 8 31 8 14 0 17
34 2 39 -5 2 17 4 50 5 35 2 60 -2 60 -7 0 -6 11 -8 26 -4 16 4 29 2 34 -6 6
-9 12 -9 29 -1 25 14 28 31 5 31 -8 0 -12 -4 -9 -10 3 -5 -1 -10 -9 -10 -21 0
-20 6 4 30 19 19 50 18 50 -1 0 -12 44 -11 56 1 12 12 184 21 184 10 0 -9 109
-25 150 -23 14 0 28 -4 31 -10 10 -14 39 -1 39 18 0 8 -4 15 -10 15 -5 0 -10
-4 -10 -10 0 -5 -5 -10 -11 -10 -5 0 -9 9 -7 21 3 19 -3 21 -52 24 -30 2 -56
8 -58 14 -2 6 -9 11 -16 11 -7 0 -33 14 -59 30 -56 35 -93 38 -118 9 l-19 -22
-32 25 c-45 34 -66 40 -90 27 -14 -8 -23 -8 -31 0 -12 12 -38 15 -36 4z"/>
<path d="M695 690 c3 -5 8 -10 11 -10 2 0 4 5 4 10 0 6 -5 10 -11 10 -5 0 -7
-4 -4 -10z"/>
<path d="M924 624 c3 -9 6 -18 6 -20 0 -3 10 0 21 7 17 9 19 13 8 20 -23 14
-42 11 -35 -7z"/>
<path d="M700 595 c7 -8 17 -15 22 -15 6 0 5 7 -2 15 -7 8 -17 15 -22 15 -6 0
-5 -7 2 -15z"/>
<path d="M753 558 c2 -12 11 -24 20 -26 14 -3 15 1 8 19 -11 32 -32 37 -28 7z"/>
<path d="M1745 540 c3 -5 8 -10 11 -10 2 0 4 5 4 10 0 6 -5 10 -11 10 -5 0 -7
-4 -4 -10z"/>
<path d="M840 482 c0 -11 46 -32 54 -25 8 8 -20 33 -38 33 -9 0 -16 -4 -16 -8z"/>
<path d="M1180 475 c0 -8 5 -15 10 -15 6 0 10 7 10 15 0 8 -4 15 -10 15 -5 0
-10 -7 -10 -15z"/>
<path d="M1090 465 c0 -9 5 -15 11 -13 6 2 11 8 11 13 0 5 -5 11 -11 13 -6 2
-11 -4 -11 -13z"/>
<path d="M275 450 c3 -5 11 -10 16 -10 6 0 7 5 4 10 -3 6 -11 10 -16 10 -6 0
-7 -4 -4 -10z"/>
<path d="M310 451 c0 -5 5 -13 10 -16 6 -3 10 -2 10 4 0 5 -4 13 -10 16 -5 3
-10 2 -10 -4z"/>
<path d="M1060 422 c6 -13 14 -21 18 -18 3 4 -2 14 -12 24 -18 16 -18 16 -6
-6z"/>
<path d="M1030 410 c0 -5 5 -10 11 -10 5 0 7 5 4 10 -3 6 -8 10 -11 10 -2 0
-4 -4 -4 -10z"/>
<path d="M210 399 c0 -5 5 -7 10 -4 6 3 10 8 10 11 0 2 -4 4 -10 4 -5 0 -10
-5 -10 -11z"/>
<path d="M0 386 c0 -9 5 -16 10 -16 6 0 10 4 10 9 0 6 -4 13 -10 16 -5 3 -10
-1 -10 -9z"/>
<path d="M1098 383 c7 -3 16 -2 19 1 4 3 -2 6 -13 5 -11 0 -14 -3 -6 -6z"/>
<path d="M1759 372 c13 -25 10 -70 -5 -83 -11 -9 -14 -7 -15 12 -1 17 -3 19
-6 7 -6 -22 -12 -22 -35 -1 -23 20 -33 11 -18 -16 9 -17 8 -22 -5 -27 -18 -7
-20 -34 -2 -34 7 0 17 -8 24 -18 13 -22 65 -19 84 4 6 8 8 14 4 14 -4 0 -2 6
5 14 6 8 18 12 25 10 23 -9 41 7 23 20 -8 6 -20 21 -26 33 -10 18 -9 24 5 32
17 10 17 12 -2 24 -11 6 -30 15 -42 19 -19 5 -21 3 -14 -10z"/>
<path d="M1560 376 c0 -2 7 -7 16 -10 8 -3 12 -2 9 4 -6 10 -25 14 -25 6z"/>
<path d="M1580 324 c0 -8 5 -12 10 -9 6 4 8 11 5 16 -9 14 -15 11 -15 -7z"/>
<path d="M1640 330 c0 -5 -7 -10 -16 -10 -8 0 -12 -4 -9 -10 4 -6 13 -5 25 3
21 13 26 27 10 27 -5 0 -10 -4 -10 -10z"/>
<path d="M1840 317 c0 -9 7 -14 15 -13 20 3 20 20 1 24 -9 2 -16 -3 -16 -11z"/>
<path d="M1580 294 c0 -2 13 -17 28 -33 l28 -29 -2 26 c0 19 -8 28 -27 33 -15
4 -27 5 -27 3z"/>
<path d="M2276 215 c4 -8 10 -15 15 -15 5 0 9 7 9 15 0 8 -7 15 -15 15 -9 0
-12 -6 -9 -15z"/>
<path d="M2298 192 c-26 -3 -41 -22 -18 -22 7 0 7 -6 0 -20 -9 -16 -8 -20 5
-20 8 0 15 -4 15 -8 0 -9 112 -33 120 -25 13 12 -20 38 -46 36 -16 -1 -23 0
-16 3 13 6 17 35 5 33 -19 -3 -32 2 -35 14 -2 7 -15 11 -30 9z"/>
<path d="M1420 180 c0 -5 5 -10 10 -10 6 0 10 5 10 10 0 6 -4 10 -10 10 -5 0
-10 -4 -10 -10z"/>
<path d="M1340 159 c0 -5 5 -7 10 -4 6 3 10 8 10 11 0 2 -4 4 -10 4 -5 0 -10
-5 -10 -11z"/>
<path d="M1400 136 c0 -2 8 -10 18 -17 15 -13 16 -12 3 4 -13 16 -21 21 -21
13z"/>
<path d="M1920 120 c0 -5 5 -10 10 -10 6 0 10 5 10 10 0 6 -4 10 -10 10 -5 0
-10 -4 -10 -10z"/>
<path d="M1825 100 c3 -5 12 -7 20 -3 21 7 19 13 -6 13 -11 0 -18 -4 -14 -10z"/>
<path d="M2445 100 c3 -5 8 -10 11 -10 2 0 4 5 4 10 0 6 -5 10 -11 10 -5 0 -7
-4 -4 -10z"/>
<path d="M2542 101 c-7 -4 -24 -6 -36 -4 -15 3 -25 -1 -30 -12 -8 -22 1 -35
25 -35 11 0 28 -4 38 -9 15 -8 17 -4 19 30 3 43 3 43 -16 30z"/>
<path d="M1335 90 c3 -5 8 -10 11 -10 2 0 4 5 4 10 0 6 -5 10 -11 10 -5 0 -7
-4 -4 -10z"/>
<path d="M1290 80 c0 -6 -4 -8 -10 -5 -5 3 -10 -3 -10 -15 0 -12 4 -19 9 -15
5 3 12 1 16 -5 10 -17 24 -2 18 20 -6 23 -23 37 -23 20z"/>
<path d="M2285 60 c-3 -5 -1 -10 4 -10 6 0 11 5 11 10 0 6 -2 10 -4 10 -3 0
-8 -4 -11 -10z"/>
<path d="M2340 55 c-7 -8 -18 -15 -25 -15 -14 0 -27 -25 -18 -34 3 -3 12 2 20
10 15 15 38 10 28 -7 -4 -5 1 -9 9 -9 19 0 20 5 6 31 -7 13 -7 19 0 19 5 0 10
5 10 10 0 15 -16 12 -30 -5z"/>
<path d="M2386 36 c3 -8 12 -12 20 -9 21 8 17 23 -6 23 -13 0 -18 -5 -14 -14z"/>
<path d="M1375 30 c-3 -5 -1 -10 4 -10 6 0 11 5 11 10 0 6 -2 10 -4 10 -3 0
-8 -4 -11 -10z"/>
</g>
</svg>
